<svg width="229" height="197" viewBox="0 0 229 197" fill="none" xmlns="http://www.w3.org/2000/svg">
<path d="M201.181 36.719C195.495 34.6898 191.502 28.0921 191.827 20.4418C192.142 12.8458 196.613 6.62786 202.386 5.03269L202.407 4.50098L205.793 4.64203C213.129 4.94588 218.771 12.5202 218.392 21.5595C218.012 30.5988 211.761 37.6739 204.426 37.3701L201.159 37.3158L201.181 36.7299V36.719Z" fill="#7C7C24"/>
<path d="M188.442 20.3005C188.062 29.3398 193.824 37.0009 201.16 37.3048C208.495 37.6086 214.626 30.4466 215.006 21.4074C215.386 12.3681 209.743 4.79374 202.407 4.4899C195.072 4.18606 188.821 11.2612 188.442 20.3005Z" fill="#D3E1FD"/>
<path d="M190.818 20.409C190.503 27.8314 195.234 34.1252 201.268 34.3748C207.29 34.6244 212.325 28.7429 212.64 21.3205C212.955 13.8981 208.31 7.68018 202.288 7.43059C196.265 7.18101 191.132 12.9974 190.818 20.4198V20.409Z" fill="#7C7C24"/>
<path d="M202.549 14.2235C202.951 14.2886 203.342 14.4079 203.711 14.5599C204.079 14.7226 204.405 14.9397 204.698 15.2001C204.991 15.4714 205.241 15.7861 205.436 16.1767C205.631 16.5565 205.772 17.0014 205.848 17.5006L204.372 17.4572C204.21 16.9472 203.982 16.5457 203.678 16.2418C203.374 15.9488 202.994 15.7427 202.506 15.645L202.398 19.7686C202.69 19.8988 202.983 20.0399 203.276 20.1809C203.569 20.322 203.841 20.4631 204.101 20.6258C204.362 20.7886 204.611 20.9622 204.828 21.1467C205.056 21.3312 205.241 21.5374 205.414 21.7652C205.577 21.9931 205.707 22.2427 205.794 22.5249C205.881 22.7961 205.924 23.1108 205.913 23.4364C205.903 24.0006 205.783 24.4781 205.566 24.8796C205.349 25.2811 205.056 25.6284 204.709 25.8997C204.362 26.1709 203.971 26.388 203.537 26.529C203.103 26.6701 202.669 26.7678 202.224 26.8003L202.17 28.8621L200.672 28.8187L200.726 26.7244C200.281 26.6159 199.869 26.4314 199.489 26.1818C199.11 25.9322 198.773 25.6284 198.48 25.2703C198.187 24.9122 197.938 24.4998 197.742 24.0441C197.547 23.5883 197.417 23.1 197.352 22.5791L198.925 22.6225C198.968 22.9372 199.044 23.2302 199.153 23.5123C199.261 23.7945 199.392 24.0441 199.544 24.2719C199.695 24.4998 199.88 24.6951 200.086 24.8579C200.292 25.0207 200.52 25.1509 200.77 25.2377L200.889 20.7561C200.477 20.5607 200.086 20.3546 199.706 20.1484C199.327 19.9313 198.99 19.6926 198.697 19.4105C198.404 19.1392 198.165 18.8245 198.003 18.4664C197.829 18.1191 197.753 17.7068 197.764 17.2293C197.764 16.8061 197.872 16.4263 198.046 16.0682C198.231 15.721 198.469 15.4063 198.762 15.1458C199.066 14.8746 199.413 14.6575 199.804 14.4947C200.195 14.3211 200.618 14.2126 201.052 14.1584L201.084 12.8345L202.582 12.8779L202.549 14.2018V14.2235ZM199.316 17.2402C199.316 17.4572 199.348 17.6634 199.424 17.837C199.5 18.0215 199.609 18.1843 199.75 18.347C199.891 18.4989 200.064 18.6509 200.26 18.7811C200.455 18.9221 200.683 19.0524 200.922 19.1717L201.009 15.645C200.466 15.721 200.054 15.9054 199.761 16.1984C199.468 16.4914 199.316 16.8387 199.305 17.2402H199.316ZM204.372 23.4581C204.372 23.241 204.329 23.0349 204.221 22.8504C204.112 22.6659 203.96 22.4814 203.776 22.3187C203.591 22.145 203.374 21.9931 203.135 21.8412C202.897 21.7001 202.636 21.5591 202.376 21.4288L202.267 25.4113C202.582 25.3788 202.875 25.3028 203.125 25.1835C203.385 25.0641 203.602 24.923 203.786 24.7494C203.971 24.5758 204.112 24.3804 204.21 24.1634C204.307 23.9464 204.362 23.7077 204.372 23.4581Z" fill="white"/>
<path d="M174.117 35.4516C168.757 30.091 160.065 30.091 154.704 35.4516C149.343 40.8123 149.343 49.5043 154.704 54.8649L164.405 64.5661L174.106 54.8649C179.467 49.5043 179.467 40.8123 174.106 35.4516H174.117ZM164.416 51.2622C160.444 51.2622 157.222 48.0393 157.222 44.0677C157.222 40.0961 160.444 36.8732 164.416 36.8732C168.388 36.8732 171.611 40.0961 171.611 44.0677C171.611 48.0393 168.388 51.2622 164.416 51.2622Z" fill="#FF8C00"/>
<path d="M165.925 69.9484C165.925 69.1129 165.241 68.4292 164.406 68.4292C163.57 68.4292 162.887 69.1129 162.887 69.9484C162.887 70.784 163.57 71.4676 164.406 71.4676C165.241 71.4676 165.925 70.784 165.925 69.9484Z" fill="#F9D44F"/>
<path d="M164.406 77.3275C165.245 77.3275 165.925 76.6473 165.925 75.8083C165.925 74.9692 165.245 74.2891 164.406 74.2891C163.567 74.2891 162.887 74.9692 162.887 75.8083C162.887 76.6473 163.567 77.3275 164.406 77.3275Z" fill="#F9D44F"/>
<path d="M164.406 83.1873C165.245 83.1873 165.925 82.5072 165.925 81.6681C165.925 80.8291 165.245 80.1489 164.406 80.1489C163.567 80.1489 162.887 80.8291 162.887 81.6681C162.887 82.5072 163.567 83.1873 164.406 83.1873Z" fill="#F9D44F"/>
<path d="M165.925 87.528C165.925 86.6924 165.241 86.0088 164.406 86.0088C163.57 86.0088 162.887 86.6924 162.887 87.528C162.887 88.3636 163.57 89.0472 164.406 89.0472C165.241 89.0472 165.925 88.3636 165.925 87.528Z" fill="#F9D44F"/>
<path d="M164.406 94.8963C165.245 94.8963 165.925 94.2161 165.925 93.3771C165.925 92.5381 165.245 91.8579 164.406 91.8579C163.567 91.8579 162.887 92.5381 162.887 93.3771C162.887 94.2161 163.567 94.8963 164.406 94.8963Z" fill="#F9D44F"/>
<path d="M165.925 99.2365C165.925 98.4009 165.241 97.7173 164.406 97.7173C163.57 97.7173 162.887 98.4009 162.887 99.2365C162.887 100.072 163.57 100.756 164.406 100.756C165.241 100.756 165.925 100.072 165.925 99.2365Z" fill="#F9D44F"/>
<path d="M165.925 105.096C165.925 104.261 165.241 103.577 164.406 103.577C163.57 103.577 162.887 104.261 162.887 105.096C162.887 105.932 163.57 106.616 164.406 106.616C165.241 106.616 165.925 105.932 165.925 105.096Z" fill="#F9D44F"/>
<path d="M164.406 112.475C165.245 112.475 165.925 111.795 165.925 110.956C165.925 110.117 165.245 109.437 164.406 109.437C163.567 109.437 162.887 110.117 162.887 110.956C162.887 111.795 163.567 112.475 164.406 112.475Z" fill="#F9D44F"/>
<path d="M164.406 118.325C165.245 118.325 165.925 117.644 165.925 116.805C165.925 115.966 165.245 115.286 164.406 115.286C163.567 115.286 162.887 115.966 162.887 116.805C162.887 117.644 163.567 118.325 164.406 118.325Z" fill="#F9D44F"/>
<path d="M164.406 124.184C165.245 124.184 165.925 123.504 165.925 122.665C165.925 121.826 165.245 121.146 164.406 121.146C163.567 121.146 162.887 121.826 162.887 122.665C162.887 123.504 163.567 124.184 164.406 124.184Z" fill="#F9D44F"/>
<path d="M165.925 128.525C165.925 127.689 165.241 127.005 164.406 127.005C163.57 127.005 162.887 127.689 162.887 128.525C162.887 129.36 163.57 130.044 164.406 130.044C165.241 130.044 165.925 129.36 165.925 128.525Z" fill="#F9D44F"/>
<path d="M165.925 134.385C165.925 133.549 165.241 132.866 164.406 132.866C163.57 132.866 162.887 133.549 162.887 134.385C162.887 135.22 163.57 135.904 164.406 135.904C165.241 135.904 165.925 135.22 165.925 134.385Z" fill="#F9D44F"/>
<path d="M165.925 140.234C165.925 139.398 165.241 138.714 164.406 138.714C163.57 138.714 162.887 139.398 162.887 140.234C162.887 141.069 163.57 141.753 164.406 141.753C165.241 141.753 165.925 141.069 165.925 140.234Z" fill="#F9D44F"/>
<path d="M164.406 147.613C165.245 147.613 165.925 146.932 165.925 146.093C165.925 145.254 165.245 144.574 164.406 144.574C163.567 144.574 162.887 145.254 162.887 146.093C162.887 146.932 163.567 147.613 164.406 147.613Z" fill="#F9D44F"/>
<path d="M164.406 153.473C165.245 153.473 165.925 152.792 165.925 151.953C165.925 151.114 165.245 150.434 164.406 150.434C163.567 150.434 162.887 151.114 162.887 151.953C162.887 152.792 163.567 153.473 164.406 153.473Z" fill="#F9D44F"/>
<path d="M164.406 159.332C165.245 159.332 165.925 158.652 165.925 157.813C165.925 156.974 165.245 156.293 164.406 156.293C163.567 156.293 162.887 156.974 162.887 157.813C162.887 158.652 163.567 159.332 164.406 159.332Z" fill="#F9D44F"/>
<path d="M165.925 163.662C165.925 162.826 165.241 162.143 164.406 162.143C163.57 162.143 162.887 162.826 162.887 163.662C162.887 164.497 163.57 165.181 164.406 165.181C165.241 165.181 165.925 164.497 165.925 163.662Z" fill="#F9D44F"/>
<path d="M202.972 45.2176C203.811 45.2176 204.492 44.5374 204.492 43.6984C204.492 42.8594 203.811 42.1792 202.972 42.1792C202.133 42.1792 201.453 42.8594 201.453 43.6984C201.453 44.5374 202.133 45.2176 202.972 45.2176Z" fill="#F9D44F"/>
<path d="M204.492 49.5475C204.492 48.712 203.808 48.0283 202.972 48.0283C202.137 48.0283 201.453 48.712 201.453 49.5475C201.453 50.3831 202.137 51.0667 202.972 51.0667C203.808 51.0667 204.492 50.3831 204.492 49.5475Z" fill="#F9D44F"/>
<path d="M204.492 55.4074C204.492 54.5718 203.808 53.8882 202.972 53.8882C202.137 53.8882 201.453 54.5718 201.453 55.4074C201.453 56.2429 202.137 56.9266 202.972 56.9266C203.808 56.9266 204.492 56.2429 204.492 55.4074Z" fill="#F9D44F"/>
<path d="M204.492 61.2673C204.492 60.4317 203.808 59.748 202.972 59.748C202.137 59.748 201.453 60.4317 201.453 61.2673C201.453 62.1028 202.137 62.7865 202.972 62.7865C203.808 62.7865 204.492 62.1028 204.492 61.2673Z" fill="#F9D44F"/>
<path d="M202.972 68.6463C203.811 68.6463 204.492 67.9661 204.492 67.1271C204.492 66.2881 203.811 65.6079 202.972 65.6079C202.133 65.6079 201.453 66.2881 201.453 67.1271C201.453 67.9661 202.133 68.6463 202.972 68.6463Z" fill="#F9D44F"/>
<path d="M204.492 72.987C204.492 72.1514 203.808 71.4678 202.972 71.4678C202.137 71.4678 201.453 72.1514 201.453 72.987C201.453 73.8225 202.137 74.5062 202.972 74.5062C203.808 74.5062 204.492 73.8225 204.492 72.987Z" fill="#F9D44F"/>
<path d="M204.492 78.8356C204.492 78.0001 203.808 77.3164 202.972 77.3164C202.137 77.3164 201.453 78.0001 201.453 78.8356C201.453 79.6712 202.137 80.3548 202.972 80.3548C203.808 80.3548 204.492 79.6712 204.492 78.8356Z" fill="#F9D44F"/>
<path d="M204.492 84.6955C204.492 83.8599 203.808 83.1763 202.972 83.1763C202.137 83.1763 201.453 83.8599 201.453 84.6955C201.453 85.531 202.137 86.2147 202.972 86.2147C203.808 86.2147 204.492 85.531 204.492 84.6955Z" fill="#F9D44F"/>
<path d="M202.972 92.0745C203.811 92.0745 204.492 91.3944 204.492 90.5553C204.492 89.7163 203.811 89.0361 202.972 89.0361C202.133 89.0361 201.453 89.7163 201.453 90.5553C201.453 91.3944 202.133 92.0745 202.972 92.0745Z" fill="#F9D44F"/>
<path d="M202.972 97.9344C203.811 97.9344 204.492 97.2542 204.492 96.4152C204.492 95.5762 203.811 94.896 202.972 94.896C202.133 94.896 201.453 95.5762 201.453 96.4152C201.453 97.2542 202.133 97.9344 202.972 97.9344Z" fill="#F9D44F"/>
<path d="M204.492 102.264C204.492 101.429 203.808 100.745 202.972 100.745C202.137 100.745 201.453 101.429 201.453 102.264C201.453 103.1 202.137 103.784 202.972 103.784C203.808 103.784 204.492 103.1 204.492 102.264Z" fill="#F9D44F"/>
<path d="M204.492 108.135C204.492 107.299 203.808 106.616 202.972 106.616C202.137 106.616 201.453 107.299 201.453 108.135C201.453 108.971 202.137 109.654 202.972 109.654C203.808 109.654 204.492 108.971 204.492 108.135Z" fill="#F9D44F"/>
<path d="M204.492 113.994C204.492 113.159 203.808 112.475 202.972 112.475C202.137 112.475 201.453 113.159 201.453 113.994C201.453 114.83 202.137 115.513 202.972 115.513C203.808 115.513 204.492 114.83 204.492 113.994Z" fill="#F9D44F"/>
<path d="M202.972 121.373C203.811 121.373 204.492 120.693 204.492 119.854C204.492 119.015 203.811 118.335 202.972 118.335C202.133 118.335 201.453 119.015 201.453 119.854C201.453 120.693 202.133 121.373 202.972 121.373Z" fill="#F9D44F"/>
<path d="M202.972 127.244C203.811 127.244 204.492 126.564 204.492 125.725C204.492 124.886 203.811 124.206 202.972 124.206C202.133 124.206 201.453 124.886 201.453 125.725C201.453 126.564 202.133 127.244 202.972 127.244Z" fill="#F9D44F"/>
<path d="M202.972 133.104C203.811 133.104 204.492 132.424 204.492 131.585C204.492 130.746 203.811 130.066 202.972 130.066C202.133 130.066 201.453 130.746 201.453 131.585C201.453 132.424 202.133 133.104 202.972 133.104Z" fill="#F9D44F"/>
<path d="M129.181 33.0861C129.181 32.2505 128.497 31.5669 127.662 31.5669C126.826 31.5669 126.143 32.2505 126.143 33.0861C126.143 33.9217 126.826 34.6053 127.662 34.6053C128.497 34.6053 129.181 33.9217 129.181 33.0861Z" fill="#F9D44F"/>
<path d="M118.406 23.2439C118.406 21.6487 117.114 20.3465 115.508 20.3465C113.902 20.3465 112.611 21.6378 112.611 23.2439C112.611 24.8499 113.902 26.1412 115.508 26.1412C117.114 26.1412 118.406 24.8499 118.406 23.2439Z" fill="#7C7C24"/>
<path d="M117.559 23.2439C117.559 22.1153 116.648 21.193 115.508 21.193C114.369 21.193 113.457 22.1045 113.457 23.2439C113.457 24.3833 114.369 25.2948 115.508 25.2948C116.648 25.2948 117.559 24.3833 117.559 23.2439Z" fill="#7C7C24"/>
<path d="M142.246 23.2439C142.246 21.6487 140.955 20.3465 139.349 20.3465C137.743 20.3465 136.452 21.6378 136.452 23.2439C136.452 24.8499 137.743 26.1412 139.349 26.1412C140.955 26.1412 142.246 24.8499 142.246 23.2439Z" fill="#7C7C24"/>
<path d="M141.4 23.2439C141.4 22.1153 140.488 21.193 139.349 21.193C138.21 21.193 137.298 22.1045 137.298 23.2439C137.298 24.3833 138.21 25.2948 139.349 25.2948C140.488 25.2948 141.4 24.3833 141.4 23.2439Z" fill="#7C7C24"/>
<path d="M145.534 17.601V12.9024H142.094L109.942 12.1427V23.2438H111.613C111.613 21.0844 113.36 19.3373 115.519 19.3373C117.679 19.3373 119.426 21.0844 119.426 23.2438H135.432C135.432 21.0735 137.19 19.3264 139.349 19.3264C141.508 19.3264 143.266 21.0844 143.266 23.2438H147.271V17.601H145.534Z" fill="#7C7C24"/>
<path d="M128.335 0H106.675V18.3607H128.335V0Z" fill="#7C7C24"/>
<path d="M129.246 0H107.587V18.3607H129.246V0Z" fill="#7C7C24"/>
<path d="M111.081 18.3498H105.568V23.2438H111.081V18.3498Z" fill="#7C7C24"/>
<path d="M138.166 4.32973H129.246V12.9024L142.094 12.9024L138.166 4.32973ZM130.201 5.28466H136.81L139.349 11.3181H130.201V5.28466Z" fill="#7C7C24"/>
<path d="M129.181 38.946C129.181 38.1104 128.497 37.4268 127.662 37.4268C126.826 37.4268 126.143 38.1104 126.143 38.946C126.143 39.7815 126.826 40.4652 127.662 40.4652C128.497 40.4652 129.181 39.7815 129.181 38.946Z" fill="#F9D44F"/>
<path d="M129.181 44.8058C129.181 43.9703 128.497 43.2866 127.662 43.2866C126.826 43.2866 126.143 43.9703 126.143 44.8058C126.143 45.6414 126.826 46.325 127.662 46.325C128.497 46.325 129.181 45.6414 129.181 44.8058Z" fill="#F9D44F"/>
<path d="M129.181 50.6652C129.181 49.8296 128.497 49.146 127.662 49.146C126.826 49.146 126.143 49.8296 126.143 50.6652C126.143 51.5008 126.826 52.1844 127.662 52.1844C128.497 52.1844 129.181 51.5008 129.181 50.6652Z" fill="#F9D44F"/>
<path d="M129.181 56.5143C129.181 55.6788 128.497 54.9951 127.662 54.9951C126.826 54.9951 126.143 55.6788 126.143 56.5143C126.143 57.3499 126.826 58.0335 127.662 58.0335C128.497 58.0335 129.181 57.3499 129.181 56.5143Z" fill="#F9D44F"/>
<path d="M129.181 62.3742C129.181 61.5386 128.497 60.855 127.662 60.855C126.826 60.855 126.143 61.5386 126.143 62.3742C126.143 63.2097 126.826 63.8934 127.662 63.8934C128.497 63.8934 129.181 63.2097 129.181 62.3742Z" fill="#F9D44F"/>
<path d="M129.181 68.234C129.181 67.3985 128.497 66.7148 127.662 66.7148C126.826 66.7148 126.143 67.3985 126.143 68.234C126.143 69.0696 126.826 69.7532 127.662 69.7532C128.497 69.7532 129.181 69.0696 129.181 68.234Z" fill="#F9D44F"/>
<path d="M129.181 74.0939C129.181 73.2583 128.497 72.5747 127.662 72.5747C126.826 72.5747 126.143 73.2583 126.143 74.0939C126.143 74.9295 126.826 75.6131 127.662 75.6131C128.497 75.6131 129.181 74.9295 129.181 74.0939Z" fill="#F9D44F"/>
<path d="M129.181 79.9533C129.181 79.1178 128.497 78.4341 127.662 78.4341C126.826 78.4341 126.143 79.1178 126.143 79.9533C126.143 80.7889 126.826 81.4725 127.662 81.4725C128.497 81.4725 129.181 80.7889 129.181 79.9533Z" fill="#F9D44F"/>
<path d="M129.181 85.8024C129.181 84.9668 128.497 84.2832 127.662 84.2832C126.826 84.2832 126.143 84.9668 126.143 85.8024C126.143 86.638 126.826 87.3216 127.662 87.3216C128.497 87.3216 129.181 86.638 129.181 85.8024Z" fill="#F9D44F"/>
<path d="M129.181 91.6623C129.181 90.8267 128.497 90.1431 127.662 90.1431C126.826 90.1431 126.143 90.8267 126.143 91.6623C126.143 92.4978 126.826 93.1815 127.662 93.1815C128.497 93.1815 129.181 92.4978 129.181 91.6623Z" fill="#F9D44F"/>
<path d="M129.181 97.5221C129.181 96.6866 128.497 96.0029 127.662 96.0029C126.826 96.0029 126.143 96.6866 126.143 97.5221C126.143 98.3577 126.826 99.0414 127.662 99.0414C128.497 99.0414 129.181 98.3577 129.181 97.5221Z" fill="#F9D44F"/>
<path d="M129.181 103.382C129.181 102.546 128.497 101.863 127.662 101.863C126.826 101.863 126.143 102.546 126.143 103.382C126.143 104.218 126.826 104.901 127.662 104.901C128.497 104.901 129.181 104.218 129.181 103.382Z" fill="#F9D44F"/>
<path d="M129.181 109.231C129.181 108.395 128.497 107.711 127.662 107.711C126.826 107.711 126.143 108.395 126.143 109.231C126.143 110.066 126.826 110.75 127.662 110.75C128.497 110.75 129.181 110.066 129.181 109.231Z" fill="#F9D44F"/>
<path d="M129.181 115.09C129.181 114.255 128.497 113.571 127.662 113.571C126.826 113.571 126.143 114.255 126.143 115.09C126.143 115.926 126.826 116.61 127.662 116.61C128.497 116.61 129.181 115.926 129.181 115.09Z" fill="#F9D44F"/>
<path d="M129.181 120.95C129.181 120.115 128.497 119.431 127.662 119.431C126.826 119.431 126.143 120.115 126.143 120.95C126.143 121.786 126.826 122.47 127.662 122.47C128.497 122.47 129.181 121.786 129.181 120.95Z" fill="#F9D44F"/>
<path d="M129.181 126.81C129.181 125.975 128.497 125.291 127.662 125.291C126.826 125.291 126.143 125.975 126.143 126.81C126.143 127.646 126.826 128.329 127.662 128.329C128.497 128.329 129.181 127.646 129.181 126.81Z" fill="#F9D44F"/>
<path d="M213.476 191.007H111.993C108.976 191.007 106.871 188.566 107.294 185.538L116.29 121.525C116.713 118.509 119.502 116.056 122.519 116.056H224.002C227.019 116.056 229.124 118.498 228.701 121.525L219.705 185.538C219.282 188.555 216.493 191.007 213.476 191.007Z" fill="#7A7B23"/>
<path d="M206.933 191.007H105.45C102.433 191.007 100.328 188.566 100.751 185.538L109.747 121.525C110.17 118.509 112.959 116.056 115.976 116.056H217.448C220.465 116.056 222.57 118.498 222.147 121.525L213.151 185.538C212.728 188.555 209.939 191.007 206.922 191.007H206.933Z" fill="#4E4F16"/>
<path d="M201.984 186.927H111.548C108.857 186.927 106.98 184.746 107.359 182.055L115.379 125.009C115.758 122.317 118.243 120.136 120.935 120.136H211.371C214.062 120.136 215.939 122.317 215.559 125.009L207.54 182.055C207.16 184.746 204.675 186.927 201.984 186.927Z" fill="white"/>
<path d="M147.012 176.705C147.012 175.544 147.945 174.611 149.106 174.611C150.267 174.611 151.2 175.544 151.2 176.705C151.2 177.866 150.267 178.8 149.106 178.8C147.945 178.8 147.012 177.866 147.012 176.705Z" fill="#5F055A"/>
<path d="M147.902 176.705C147.902 176.032 148.445 175.501 149.118 175.501C149.79 175.501 150.333 176.043 150.333 176.705C150.333 177.367 149.79 177.921 149.118 177.921C148.445 177.921 147.902 177.378 147.902 176.705Z" fill="#7C7C24"/>
<path d="M149.106 177.085C149.313 177.085 149.486 176.911 149.486 176.705V174.177C149.486 173.971 149.313 173.797 149.106 173.797C148.9 173.797 148.727 173.971 148.727 174.177V176.705C148.727 176.911 148.9 177.085 149.106 177.085Z" fill="#645214"/>
<path d="M141.574 176.705C141.574 175.544 142.507 174.611 143.669 174.611C144.83 174.611 145.763 175.544 145.763 176.705C145.763 177.866 144.83 178.8 143.669 178.8C142.507 178.8 141.574 177.866 141.574 176.705Z" fill="#5F055A"/>
<path d="M142.465 176.705C142.465 176.032 143.007 175.501 143.68 175.501C144.353 175.501 144.896 176.043 144.896 176.705C144.896 177.367 144.353 177.921 143.68 177.921C143.007 177.921 142.465 177.378 142.465 176.705Z" fill="#7C7C24"/>
<path d="M143.669 177.085C143.875 177.085 144.049 176.911 144.049 176.705V174.177C144.049 173.971 143.875 173.797 143.669 173.797C143.463 173.797 143.289 173.971 143.289 174.177V176.705C143.289 176.911 143.463 177.085 143.669 177.085Z" fill="#645214"/>
<path d="M127.848 176.705C127.848 175.544 128.781 174.611 129.942 174.611C131.103 174.611 132.036 175.544 132.036 176.705C132.036 177.866 131.103 178.8 129.942 178.8C128.781 178.8 127.848 177.866 127.848 176.705Z" fill="#5F055A"/>
<path d="M128.738 176.705C128.738 176.032 129.281 175.501 129.954 175.501C130.626 175.501 131.169 176.043 131.169 176.705C131.169 177.367 130.626 177.921 129.954 177.921C129.281 177.921 128.738 177.378 128.738 176.705Z" fill="#7C7C24"/>
<path d="M129.942 177.085C130.148 177.085 130.322 176.911 130.322 176.705V174.177C130.322 173.971 130.148 173.797 129.942 173.797C129.736 173.797 129.562 173.971 129.562 174.177V176.705C129.562 176.911 129.736 177.085 129.942 177.085Z" fill="#645214"/>
<path d="M122.41 176.705C122.41 175.544 123.343 174.611 124.505 174.611C125.666 174.611 126.599 175.544 126.599 176.705C126.599 177.866 125.666 178.8 124.505 178.8C123.343 178.8 122.41 177.866 122.41 176.705Z" fill="#5F055A"/>
<path d="M123.301 176.705C123.301 176.032 123.843 175.501 124.516 175.501C125.189 175.501 125.732 176.043 125.732 176.705C125.732 177.367 125.189 177.921 124.516 177.921C123.843 177.921 123.301 177.378 123.301 176.705Z" fill="#7C7C24"/>
<path d="M124.505 177.085C124.711 177.085 124.885 176.911 124.885 176.705V174.177C124.885 173.971 124.711 173.797 124.505 173.797C124.299 173.797 124.125 173.971 124.125 174.177V176.705C124.125 176.911 124.299 177.085 124.505 177.085Z" fill="#645214"/>
<path d="M122.681 175.175H152.729C153.142 175.175 153.478 174.839 153.478 174.426C153.478 174.014 153.142 173.667 152.729 173.667H123.43V171.42L127.597 165.257C127.825 164.909 126.577 164.074 126.349 164.41L122.052 170.758C121.965 170.889 121.922 171.03 121.922 171.182V174.415C121.922 174.828 122.258 175.164 122.681 175.164V175.175Z" fill="#645214"/>
<path d="M154.401 159.69C154.607 159.69 154.77 159.528 154.78 159.332C154.78 159.126 154.628 158.952 154.422 158.942L125.102 157.813H125.091C124.885 157.813 124.722 157.976 124.711 158.171C124.711 158.377 124.863 158.551 125.069 158.562L154.39 159.69H154.401Z" fill="#645214"/>
<path d="M148.15 165.051C148.107 165.257 148.248 165.452 148.454 165.496C148.476 165.496 148.498 165.496 148.53 165.496C148.704 165.496 148.867 165.365 148.899 165.192L151.341 152.571C151.384 152.365 151.243 152.17 151.048 152.127C150.842 152.094 150.646 152.224 150.603 152.43L148.161 165.051H148.15Z" fill="#645214"/>
<path d="M146.067 165.409C146.219 165.409 146.349 165.278 146.349 165.127V152.018C146.349 151.866 146.219 151.736 146.067 151.736C145.915 151.736 145.785 151.866 145.785 152.018V165.127C145.785 165.278 145.915 165.409 146.067 165.409Z" fill="#645214"/>
<path d="M142.909 165.409C143.061 165.409 143.191 165.279 143.191 165.127V151.845C143.191 151.693 143.061 151.562 142.909 151.562C142.757 151.562 142.627 151.693 142.627 151.845V165.127C142.627 165.279 142.757 165.409 142.909 165.409Z" fill="#645214"/>
<path d="M139.457 165.127C139.457 165.278 139.587 165.409 139.739 165.409C139.891 165.409 140.021 165.278 140.021 165.127V151.389C140.021 151.237 139.891 151.106 139.739 151.106C139.587 151.106 139.457 151.237 139.457 151.389V165.127Z" fill="#645214"/>
<path d="M136.583 165.409C136.735 165.409 136.865 165.278 136.865 165.127V151.052C136.865 150.9 136.735 150.77 136.583 150.77C136.431 150.77 136.301 150.9 136.301 151.052V165.127C136.301 165.278 136.431 165.409 136.583 165.409Z" fill="#645214"/>
<path d="M133.131 165.127C133.131 165.278 133.261 165.409 133.413 165.409C133.565 165.409 133.695 165.278 133.695 165.127V150.759C133.695 150.607 133.565 150.477 133.413 150.477C133.261 150.477 133.131 150.607 133.131 150.759V165.127Z" fill="#645214"/>
<path d="M130.257 165.409C130.409 165.409 130.539 165.278 130.539 165.127V150.618C130.539 150.466 130.409 150.336 130.257 150.336C130.105 150.336 129.975 150.466 129.975 150.618V165.127C129.975 165.278 130.105 165.409 130.257 165.409Z" fill="#645214"/>
<path d="M126.805 165.127C126.805 165.279 126.935 165.409 127.087 165.409C127.239 165.409 127.369 165.279 127.369 165.127V150.195C127.369 150.043 127.239 149.913 127.087 149.913C126.935 149.913 126.805 150.043 126.805 150.195V165.127Z" fill="#645214"/>
<path d="M126.415 165.224L122.161 150.184L116.019 147.71C115.857 147.645 115.759 147.482 115.791 147.308C115.813 147.135 115.943 147.004 116.117 146.983L123.604 146.039C123.67 146.039 123.746 146.039 123.8 146.071L127.012 147.482C127.109 147.525 127.185 147.601 127.218 147.699L127.967 149.826L156.126 152.625C156.235 152.625 156.333 152.691 156.398 152.788C156.463 152.875 156.484 152.994 156.452 153.103L153.218 165.213C153.175 165.376 153.023 165.495 152.849 165.495H126.784C126.61 165.495 126.469 165.387 126.426 165.224H126.415ZM155.605 153.342L127.652 150.564C127.511 150.553 127.381 150.455 127.337 150.314L126.567 148.111L123.604 146.809L117.658 147.558L122.628 149.554C122.736 149.598 122.823 149.685 122.856 149.804L127.088 164.747H152.589L155.638 153.352L155.605 153.342Z" fill="#645214"/>
<path d="M127.685 150.564C127.88 150.564 128.054 150.412 128.065 150.206C128.075 150 127.913 149.815 127.706 149.804L122.498 149.522C122.259 149.501 122.118 149.674 122.096 149.88C122.085 150.087 122.248 150.271 122.454 150.282L127.663 150.564H127.685Z" fill="#645214"/>
<path d="M116.192 148.209C116.192 148.209 116.268 148.209 116.3 148.209L124.309 146.994C124.721 146.929 125.003 146.549 124.938 146.137C124.873 145.724 124.493 145.442 124.081 145.507L116.072 146.723C115.66 146.788 115.378 147.168 115.443 147.58C115.497 147.949 115.823 148.22 116.192 148.22V148.209Z" fill="#FF8C00"/>
<path d="M68.707 184.464H220.172V189.369C220.172 193.123 217.123 196.162 213.379 196.162H75.5109C71.7563 196.162 68.7179 193.112 68.7179 189.369V184.464H68.707Z" fill="#4E4F16"/>
<path d="M81.1959 181.871H69.6934V184.453H81.1959V181.871Z" fill="#4E4F16"/>
<path d="M94.7291 181.871H83.2266V184.453H94.7291V181.871Z" fill="#4E4F16"/>
<path d="M108.26 181.871H96.7578V184.453H108.26V181.871Z" fill="#4E4F16"/>
<path d="M148.41 181.871H110.289V184.453H148.41V181.871Z" fill="#B7951C"/>
<path d="M162.376 181.871H150.873V184.453H162.376V181.871Z" fill="#B7951C"/>
<path d="M175.909 181.871H164.406V184.453H175.909V181.871Z" fill="#B7951C"/>
<path d="M189.44 181.871H177.938V184.453H189.44V181.871Z" fill="#B7951C"/>
<path d="M202.971 181.871H191.469V184.453H202.971V181.871Z" fill="#B7951C"/>
<path d="M62.1621 184.464H213.627V189.369C213.627 193.123 210.578 196.162 206.834 196.162H68.966C65.2114 196.162 62.173 193.112 62.173 189.369V184.464H62.1621Z" fill="#7A7B23"/>
<path d="M213.584 184.453H62V188.772H213.584V184.453Z" fill="#4E4F16"/>
<path d="M107.91 115.022C107.866 114.556 107.15 114.263 106.814 114.773C106.369 115.456 105.468 115.619 105.175 116.4C105.045 116.758 105.381 117.149 105.739 117.138C106.629 117.138 107.302 116.346 107.866 115.738C108.094 115.5 108.051 115.218 107.91 115.011V115.022Z" fill="#F4D8D5"/>
<path d="M17.4081 193.371L17.2345 194.152C17.0717 194.912 16.3772 195.444 15.5742 195.422C14.7929 195.4 13.7294 195.238 12.4598 194.706C9.72524 193.556 0.143379 189.215 0.0131611 188.542C-0.117057 187.869 0.761912 185.612 0.761912 185.612L4.96143 188.607L17.4081 193.36V193.371Z" fill="#393958"/>
<path d="M8.77089 177.777L6.9804 183.919L9.67156 187.326C9.67156 187.326 4.18072 186.491 1.94531 181.879L4.13731 176.149L8.77089 177.777Z" fill="#F4D8D5"/>
<path d="M36.9308 112.452C36.9308 112.452 45.2648 145.646 44.7439 149.651C44.223 153.655 45.0911 184.354 45.0911 184.354H36.8766C36.8766 184.354 32.7639 159.222 31.2881 151.658C31.0927 150.66 21.3047 113.092 21.3047 113.092C21.3047 113.092 30.6804 113.613 36.9308 112.452Z" fill="white"/>
<path d="M6.98999 183.919C6.98999 183.919 16.1595 190.658 17.4183 193.36C17.2555 194.304 14.2171 194.5 11.6561 193.339C9.09517 192.177 0.131855 187.598 0.359736 186.73C0.772093 185.091 1.24956 183.236 1.96575 181.879C2.88813 184.429 9.69201 187.327 7.00084 183.919H6.98999Z" fill="#393958"/>
<path d="M58.3828 191.277L58.6107 192.047C58.8386 192.785 58.4913 193.599 57.7751 193.968C57.0807 194.326 56.0715 194.706 54.7042 194.847C51.7634 195.162 41.2701 196.008 40.8251 195.476C40.3911 194.945 40.0547 192.546 40.0547 192.546L45.1766 193.143L58.372 191.277H58.3828Z" fill="#393958"/>
<path d="M43.289 181.814L44.6997 188.054L48.7039 189.736C48.7039 189.736 43.4952 191.667 39.3065 188.705L38.4492 182.628L43.289 181.814Z" fill="#F4D8D5"/>
<path d="M44.6998 188.054C44.6998 188.054 55.9854 189.508 58.3944 191.277C58.7091 192.177 56.1481 193.827 53.3376 194.044C50.5379 194.261 40.4786 194.597 40.2507 193.729C39.8275 192.101 39.3392 190.235 39.3066 188.705C41.3467 190.484 48.704 189.736 44.6998 188.054Z" fill="#393958"/>
<path d="M23.907 109.424C23.907 109.424 21.7692 143.584 20.0547 147.241C18.3402 150.898 9.84345 180.414 9.84345 180.414L2.01953 177.919C2.01953 177.919 5.74159 152.721 6.63141 145.071C6.75078 144.062 5.76329 108.111 8.83426 105.29C11.7208 102.642 17.6131 108.632 23.9178 109.424H23.907Z" fill="white"/>
<path d="M12.7408 179.123C12.7408 179.123 11.7533 182.324 11.5471 182.422C11.3518 182.52 0.54375 179.199 0.163948 179.112C-0.205002 179.036 1.2925 175.434 1.2925 175.434C1.2925 175.434 12.4044 177.669 12.73 179.123H12.7408Z" fill="#735C0D"/>
<path d="M41.6604 103.195C37.081 96.7606 33.9124 91.4217 32.0568 86.6687C30.7655 83.359 30.1252 80.3423 30.0601 77.445C30.0601 77.2279 30.0601 77.0217 30.0601 76.7939C30.1035 73.6035 28.4975 71.6068 28.9967 71.1185C29.1052 71.0209 29.2246 70.9124 29.3548 70.8147C29.8214 70.4891 30.4074 70.2613 31.1236 70.2287C32.0025 70.1853 33.0768 70.4458 34.3356 71.2054C34.6937 71.4332 35.0627 71.6828 35.4642 71.9975C36.354 72.7028 37.3306 73.6578 38.3941 74.8949C43.1036 80.4834 50.385 95.8925 49.4517 98.9309C48.5294 101.969 43.1362 105.279 41.6495 103.195H41.6604Z" fill="#DB7A04"/>
<path d="M35.5306 82.4364C35.5849 80.9389 35.574 79.6802 35.2376 78.1827C34.6082 75.4698 33.5122 72.8654 32.1775 70.4347C32.1341 70.3588 31.19 70.1634 30.8211 70.2394C30.6149 70.2937 30.4087 70.3588 30.2242 70.4347C29.7359 72.4205 29.66 74.4172 29.7251 76.4356C29.7251 76.8588 29.7576 77.2929 29.7793 77.7269C31.1358 80.2987 33.0565 91.7796 35.6825 94.1669C35.5306 93.353 35.498 83.4348 35.5306 82.4256V82.4364Z" fill="#FF8C00"/>
<path d="M40.7921 100.862C40.7921 100.862 39.8263 105.301 61.9308 118.16C61.9308 118.16 64.4266 116.022 65.2296 113.906C65.2296 113.906 50.5042 96.6627 47.3138 96.1419C44.1235 95.621 40.7812 100.862 40.7812 100.862H40.7921Z" fill="#DB7A04"/>
<path d="M39.2199 116.141C39.2199 116.141 24.5596 121.447 9.22643 118.452C7.80489 118.181 6.38335 117.834 4.97266 117.41L9.25899 79.3761C9.29154 79.2133 9.31325 79.0288 9.31325 78.866L9.45431 77.629L10.3007 70.1523C10.3007 70.1523 11.0169 70.0438 12.2649 69.9027C15.9001 69.5121 24.0061 68.9695 31.3092 70.2282C31.3092 70.2282 37.9394 110.65 39.2308 116.13L39.2199 116.141Z" fill="#FF8C00"/>
<path d="M14.8032 93.049C12.9802 90.3253 12.1663 87.276 12.3834 83.9663C12.7306 78.8987 17.7223 72.3444 12.2531 69.9028C11.0161 70.0439 10.289 70.1524 10.289 70.1524L9.4426 77.6291C9.41004 78.0414 9.36664 78.443 9.30153 78.8662C9.30153 79.0289 9.26898 79.2134 9.24727 79.3762L4.96094 117.411C6.38248 117.834 7.80403 118.181 9.21472 118.452C9.81155 118.235 10.3324 117.866 10.7122 117.335C12.9476 114.329 10.3541 110.715 14.2064 108.133C17.3967 105.995 16.6263 95.7619 14.7924 93.0382L14.8032 93.049Z" fill="#FF8C00"/>
<path d="M11.5266 70.3259C10.0291 68.9912 5.05911 73.0062 4.84208 78.6273C4.54909 85.9737 6.20937 104.953 8.6184 107.004C11.0166 109.055 17.5492 106.787 17.1694 104.248C16.7896 101.708 18.7971 76.7934 11.5374 70.3259H11.5266Z" fill="#DB7A04"/>
<path d="M30.7989 48.4385C30.7989 48.4385 32.6328 54.765 31.0702 55.7091C29.5076 56.6531 26.3064 49.3392 27.0443 48.7858C27.7714 48.2324 30.1153 47.4945 30.7989 48.4385Z" fill="#5F055A"/>
<path d="M25.6878 63.9239L26.0025 69.9139C26.0025 69.9139 25.6444 73.5817 23.4633 73.5817C20.4031 73.5817 16.616 70.641 15.7696 69.3714L15.2812 59.312L25.677 63.9239H25.6878Z" fill="#F4D8D5"/>
<path d="M25.6767 66.8536L25.9914 66.7776C30.2995 65.7576 32.9581 61.4387 31.9272 57.1306L29.2903 46.0404C29.1601 45.4978 28.6175 45.1615 28.0749 45.2917L14.1308 48.6014C13.5882 48.7316 13.2627 49.2742 13.382 49.8167L16.0189 60.9069C17.039 65.215 21.3579 67.8736 25.6659 66.8427L25.6767 66.8536Z" fill="#F4D8D5"/>
<path d="M30.0293 48.7644L30.5176 51.1843C30.5176 51.1843 22.2271 52.6384 15.6945 52.2694L15 50.0123L20.697 48.0265L25.7538 47.625L30.0401 48.7644H30.0293Z" fill="#DBB5BF"/>
<path d="M32.4051 47.4189C33.512 43.7185 29.5295 41.9497 27.4026 41.5482C24.2774 40.9514 15.6721 40.5282 13.198 46.4097C13.198 46.4097 11.4943 48.0917 11.1037 50.186C10.713 52.2803 11.1688 62.0792 16.193 61.58C15.8132 60.4298 17.1154 57.4456 17.4518 55.9373C17.7882 54.4289 16.2039 50.696 16.2039 50.696C16.2039 50.696 31.2983 51.1192 32.4051 47.4189Z" fill="#060606"/>
<path d="M17.5064 57.337C17.5064 57.337 16.7794 55.221 15.0431 56.1216C12.569 57.4021 14.1208 61.8295 17.3219 60.842C18.5048 60.4731 18.3962 58.1075 17.5173 57.337H17.5064Z" fill="#F4D8D5"/>
<path d="M17.0612 57.6188C17.0612 57.2064 16.6055 56.3058 15.7374 56.5879C14.8692 56.8701 14.4786 57.8901 14.6956 58.7257C14.9126 59.5504 15.4986 60.3642 15.8893 60.1472C16.2908 59.9302 15.4444 59.1488 15.4769 58.628C15.4986 58.1071 15.9435 57.5863 16.2799 57.8358C16.6163 58.0746 17.0829 58.0095 17.0721 57.6297L17.0612 57.6188Z" fill="#DBB5BF"/>
<path d="M30.192 58.6821C30.192 58.6821 28.9875 59.4743 28.293 59.5611C28.293 59.5611 28.4123 60.4184 28.9006 60.1796C29.389 59.9409 30.192 58.693 30.192 58.693V58.6821Z" fill="#DBB5BF"/>
<path d="M6.53399 125.929L6.62081 145.071L4.61328 159.221C4.61328 159.221 7.72766 148.044 9.07324 147.469C10.4188 146.883 12.0683 146.981 12.0683 146.981L9.01898 145.657L10.8746 144.94C10.8746 144.94 9.16005 143.193 8.57407 139.211C7.97724 135.228 6.54484 125.929 6.54484 125.929H6.53399Z" fill="#E8E8EF"/>
<path d="M24.1367 124.355L31.2878 151.669L36.5834 183.008L38.439 182.628C38.439 182.628 33.6209 153.926 33.8705 152.819C34.1201 151.712 37.5709 150.475 37.5709 150.475C37.5709 150.475 33.7511 150.594 33.6318 150.106C33.5124 149.618 34.6193 148.381 34.6193 148.381C34.6193 148.381 32.8939 147.643 31.0491 143.085C29.2044 138.528 24.1476 124.355 24.1476 124.355H24.1367Z" fill="#E8E8EF"/>
<path d="M47.4558 182.248C47.4558 182.248 47.4883 185.601 47.3256 185.753C47.1628 185.905 35.8556 186.024 35.4758 186.057C35.096 186.1 35.4324 182.216 35.4324 182.216C35.4324 182.216 46.6962 180.968 47.4558 182.248Z" fill="#735C0D"/>
<path d="M30.9183 48.8183C30.9183 48.8183 32.6436 48.3842 33.0777 47.0929C33.5118 45.8016 33.566 40.4952 31.6562 39.5186C31.6562 39.5186 31.1027 41.2439 28.8239 41.1246C27.8364 41.0703 22.4758 41.0595 22.0417 41.309C21.6077 41.5586 22.7796 44.5102 22.7796 44.5102L30.9183 48.8183Z" fill="#060606"/>
<path d="M12.8062 46.5396C12.8062 46.5396 12.7411 44.0112 13.5441 42.6548C13.5441 42.6548 14.0324 45.3677 14.4665 46.1707C14.9005 46.9737 13.5441 48.1456 13.5441 48.1456C13.5441 48.1456 11.0808 48.0263 9.84375 49.0029C9.84375 49.0029 10.8312 46.7241 12.8062 46.5396Z" fill="#060606"/>
<path d="M17.2346 55.0362C17.2346 55.0362 19.394 59.659 20.4358 60.3317C21.4775 61.0045 23.1486 62.3067 24.874 62.2416C26.5994 62.1765 28.5635 60.1581 28.5635 60.1581C28.5635 60.1581 28.8022 60.4728 29.627 59.4636C29.627 59.4636 30.9725 60.7224 32.0902 60.0388C32.0902 60.0388 32.8932 64.694 32.3941 65.6815C31.8949 66.669 26.6645 69.6206 24.2012 69.5664C21.7379 69.5013 19.3289 66.235 18.4716 64.2708C17.3322 61.6556 16.9524 56.1539 17.1803 56.6314L17.2454 55.0254L17.2346 55.0362Z" fill="#060606"/>
<path d="M67.8555 119.19C67.8989 119.082 67.9097 118.962 67.8663 118.821C67.4214 117.389 66.8788 115.989 66.2386 114.633C65.989 114.101 65.262 114.329 65.0883 114.784C64.9581 115.121 64.9256 115.479 64.9364 115.837C64.6434 115.295 64.2636 114.719 63.7753 114.394C63.7753 114.394 63.7753 114.372 63.7645 114.372C63.5691 114.079 62.8421 114.133 62.7661 114.144C62.4189 114.199 62.267 114.611 62.3321 114.915C62.3863 115.186 62.4623 115.446 62.5165 115.718C62.484 115.653 62.4514 115.588 62.4189 115.533C62.2561 115.262 61.8329 115.099 61.5616 115.305C61.0407 115.696 60.9431 116.391 61.0299 117.139C60.9865 117.128 60.9539 117.107 60.9105 117.096C60.585 117.02 60.2269 117.194 60.1401 117.541C59.8688 118.528 59.9447 119.689 60.8454 120.34C61.4422 120.764 62.1584 120.785 62.7553 120.471C62.9615 120.601 63.2002 120.677 63.4606 120.677C63.656 120.677 63.8621 120.633 64.0466 120.557C64.2094 120.492 64.5024 120.134 64.6217 120.091C64.7085 120.156 64.7954 120.21 64.9039 120.254C65.1209 120.373 65.3379 120.406 65.5875 120.416C65.9782 120.427 66.3146 120.308 66.6076 120.091C66.9222 120.199 67.2369 120.167 67.6167 119.95C67.9206 119.776 67.964 119.472 67.8663 119.223L67.8555 119.19Z" fill="#F5C7C2"/>
<path d="M31.8516 117.942L37.516 120.612L39.6538 117.063L34.1955 114.112L31.8516 117.942Z" fill="#F5C7C2"/>
<path d="M8.21701 105.886C8.21701 105.886 6.88228 108.957 32.4484 119.516C32.4484 119.516 35.324 116.575 35.8123 114.394C35.8123 114.394 18.9817 101.437 15.7045 101.383C12.4274 101.329 8.20616 105.886 8.20616 105.886H8.21701Z" fill="#DB7A04"/>
<path d="M46.9783 122.055C47.9333 122.142 48.5952 121.491 48.2154 120.873C48.975 120.536 48.8665 119.842 48.4867 119.332C48.5192 119.299 49.0618 118.333 48.1286 117.834C47.2713 117.378 46.3055 117.313 45.4374 117.335C44.0376 117.378 42.692 117.389 41.3573 116.923C40.7279 115.653 43.7012 116.163 44.0376 115.599C44.4716 114.861 43.7012 114.394 43.0718 114.166C40.9883 113.418 38.4274 114.416 36.702 115.686C34.9874 116.955 35.5517 119.418 36.0726 119.863C36.6911 121.654 41.8239 123.726 44.8514 123.509C46.4575 123.39 47.803 123.108 46.9783 122.066V122.055Z" fill="#F5C7C2"/>
<mask id="mask0_616_4173" style="mask-type:luminance" maskUnits="userSpaceOnUse" x="107" y="22" width="109" height="165">
<path d="M201.674 186.671H111.237C108.546 186.671 106.669 182.783 107.049 177.986L115.068 76.2973C115.448 71.5001 118.758 22 121.449 22H211.885C214.576 22 215.629 71.5001 215.249 76.2973L207.23 177.986C206.85 182.783 204.365 186.671 201.674 186.671Z" fill="white"/>
</mask>
<g mask="url(#mask0_616_4173)">
<path d="M162.766 122.427C162.473 122.785 162.473 123.295 162.636 123.631C163.038 124.456 163.982 124.575 164.329 125.541C164.405 125.736 164.47 125.932 164.546 126.105C163.266 125.53 162.159 124.64 161.301 123.403C160.716 122.546 160.52 121.439 160.021 120.56C159.902 120.354 159.88 120.224 159.695 120.083C159.598 120.007 159.424 119.974 159.294 120.072C159.001 120.278 158.827 120.56 158.719 120.886C158.632 120.669 158.513 120.484 158.328 120.365C157.894 120.104 157.362 120.321 157.091 120.875C156.711 121.635 156.755 122.481 156.939 123.262C156.538 123.458 156.223 123.924 156.18 124.467C156.125 125.216 156.462 125.975 156.842 126.615C156.266 128.97 159.717 130.522 161.269 130.782C161.323 130.782 161.377 130.782 161.443 130.793C162.756 131.119 164.188 130.826 165.458 129.73C165.903 129.35 166.792 128.471 166.988 127.733C167.183 127.635 167.302 127.397 167.302 127.19C167.335 127.125 167.346 127.049 167.346 126.963C167.281 125.389 166.727 124.022 165.707 123.089C165.165 122.589 163.591 121.45 162.777 122.427H162.766Z" fill="#F5C7C2"/>
<path d="M114.988 94.7225L136.854 87.3652L164.916 93.9955L143.05 101.667L114.988 94.7225Z" fill="#CEB65F"/>
<path d="M143.05 101.668V134.569L114.988 127.841V94.7227L143.05 101.668Z" fill="#9A842C"/>
<path d="M164.917 93.9956V127.266L143.051 134.569V101.668L164.917 93.9956Z" fill="#B7950B"/>
<path d="M125.721 97.3812L131.19 98.7268L138.515 96.665L132.633 95.2651L125.721 97.3812Z" fill="#F5C30F"/>
<path d="M141.281 92.1617L146.75 93.5181L154.064 91.4455L148.194 90.0457L141.281 92.1617Z" fill="#F5C30F"/>
<path d="M125.721 97.3811V105.965L131.146 107.571L131.19 98.7267L125.721 97.3811Z" fill="#CEB65F"/>
<path d="M135.985 128.503C135.779 128.46 135.605 128.59 135.605 128.807C135.605 129.068 135.128 128.97 135.128 128.709V123.978L139.1 124.825C139.1 122.633 137.483 120.495 135.378 119.735C135.378 119.714 135.388 119.692 135.388 119.67C135.388 119.312 135.095 118.965 134.737 118.889C134.379 118.813 134.086 119.041 134.086 119.399C134.086 119.421 134.086 119.442 134.097 119.464C131.992 119.323 130.375 120.777 130.375 122.969L134.347 123.815V128.547C134.347 129.1 134.792 129.643 135.345 129.762C135.898 129.881 136.343 129.523 136.343 128.97C136.343 128.764 136.17 128.547 135.964 128.503H135.985Z" fill="#CEB65F"/>
<path d="M170.689 129.306L166.185 126.572L163.592 130.12L168.073 133.137L170.689 129.306Z" fill="#F5C7C2"/>
<path d="M189.429 147.222C189.429 147.222 187.411 149.827 166.207 132.746C166.207 132.746 167.39 128.872 169.039 127.418C169.039 127.418 188.17 135.817 189.776 138.628C191.372 141.438 189.429 147.222 189.429 147.222Z" fill="#D3E1FD"/>
<path d="M169.842 167.493C169.842 167.493 170.232 195.381 170.753 199.32C171.263 203.259 182.343 234.132 182.343 234.132L191.23 233.784C191.23 233.784 192.923 213.156 185.533 201.219C185.218 200.709 185.077 185.979 185.533 180C187.454 179.403 189.591 179.809 190.394 178.67C192.413 175.816 190.091 170.173 190.091 170.173C190.091 170.173 175.995 168.621 169.842 167.471V167.493Z" fill="#7C7C24"/>
<path d="M185.794 162.957C185.794 162.957 190.395 194.849 191.534 200.85C192.272 204.757 199.63 232.808 199.63 232.808L207.334 230.355C207.334 230.355 205.848 206.753 204.969 199.222C204.849 198.235 203.656 161.665 200.628 158.887C197.796 156.283 191.99 162.175 185.783 162.957H185.794Z" fill="#7C7C24"/>
<path d="M136.909 129.849L132.406 127.115L129.812 130.674L134.305 133.69L136.909 129.849Z" fill="#F5C7C2"/>
<path d="M183.602 120.3L183.287 126.192C183.287 126.192 183.634 129.805 185.783 129.805C188.789 129.805 192.522 126.919 193.346 125.66L193.824 115.764L183.602 120.3Z" fill="#F4D8D5"/>
<path d="M155.65 147.776C155.65 147.776 153.632 150.38 132.428 133.3C132.428 133.3 133.611 129.426 135.26 127.972C135.26 127.972 154.391 136.371 155.997 139.181C157.592 141.992 155.65 147.776 155.65 147.776Z" fill="#4E4F16"/>
<path d="M185.577 122.133H185.262C180.911 121.938 177.536 118.27 177.71 113.919L177.851 110.425L178.176 102.709C178.198 102.167 178.664 101.744 179.207 101.765L193.303 102.351C193.846 102.373 194.269 102.84 194.247 103.382L193.781 114.592C193.596 118.943 189.928 122.318 185.577 122.144V122.133Z" fill="#F4D8D5"/>
<path d="M177.927 104.674L177.981 107.321C177.981 107.321 181.117 106.811 182.213 107.658C183.309 108.504 184.123 109.177 184.123 109.177L183.515 105.661L179.446 104.098L177.916 104.674H177.927Z" fill="#DBB5BF"/>
<path d="M198.642 103.48C198.967 103.426 199.293 103.371 199.629 103.35C200.324 103.306 200.324 102.221 199.629 102.265C199.141 102.297 198.663 102.351 198.186 102.449C198.305 101.95 198.392 101.44 198.37 100.908C198.349 100.214 197.264 100.214 197.285 100.908C197.285 101.19 197.274 101.472 197.231 101.755C196.178 99.161 193.097 93.605 186.369 95.4172C180.683 96.9473 176.212 96.0141 175.072 94.7878C175.072 94.7878 172.349 100.333 176.081 104.022C177.481 105.411 180.129 106.204 181.757 106.583C183.385 106.952 185.186 110.457 184.698 113.029C184.209 115.601 184.481 117.912 184.481 117.912C184.481 117.912 185.284 120.734 188.485 121.298C191.219 121.775 194.138 120.625 194.996 120.039C198.327 117.717 202.874 106.301 198.631 103.512L198.642 103.48Z" fill="#0C095E"/>
<path d="M183.363 110.099C183.363 110.099 184.524 108.233 186 109.481C188.094 111.26 185.609 115.167 182.766 113.506C181.713 112.888 182.343 110.642 183.363 110.11V110.099Z" fill="#F4D8D5"/>
<path d="M183.733 110.468C183.831 110.067 184.471 109.318 185.242 109.774C186.012 110.229 186.153 111.304 185.762 112.052C185.372 112.801 184.634 113.452 184.298 113.148C183.972 112.845 184.949 112.291 185.035 111.781C185.122 111.271 184.818 110.685 184.439 110.837C184.059 110.989 183.636 110.837 183.722 110.468H183.733Z" fill="#DBB5BF"/>
<path d="M128.987 122.969C128.694 123.327 128.694 123.837 128.857 124.174C129.258 124.998 130.203 125.118 130.55 126.084C130.626 126.279 130.691 126.474 130.767 126.648C129.486 126.073 128.379 125.183 127.522 123.946C126.936 123.089 126.741 121.982 126.242 121.103C126.122 120.897 126.101 120.766 125.916 120.625C125.819 120.549 125.645 120.517 125.515 120.614C125.222 120.821 125.048 121.103 124.94 121.428C124.853 121.211 124.733 121.027 124.549 120.918C124.115 120.658 123.583 120.875 123.312 121.428C122.932 122.188 122.975 123.034 123.16 123.816C122.758 124.011 122.444 124.478 122.4 125.02C122.346 125.769 122.682 126.528 123.062 127.169C122.487 129.523 125.938 131.075 127.49 131.336C127.544 131.336 127.598 131.336 127.663 131.346C128.976 131.672 130.409 131.379 131.678 130.283C132.123 129.903 133.013 129.024 133.208 128.286C133.404 128.189 133.523 127.95 133.523 127.744C133.556 127.679 133.566 127.603 133.566 127.516C133.501 125.942 132.948 124.564 131.928 123.642C131.385 123.154 129.812 122.003 128.998 122.98L128.987 122.969Z" fill="#F5C7C2"/>
<path d="M183.515 121.851C183.515 121.851 185.045 122.014 185.664 121.851L183.461 123.62L183.526 121.851H183.515Z" fill="#DBB5BF"/>
<path d="M198.48 125.128C200.043 125.725 204.264 130.717 202.409 135.936C199.989 142.751 190.667 158.703 187.727 159.69C184.786 160.689 179.653 156.229 180.923 154.048C182.203 151.866 192.49 122.817 198.48 125.128Z" fill="#4E4F16"/>
<path d="M202.929 170.281L203.418 173.776C203.418 173.776 183.527 177.487 173.283 172.029L202.929 170.281Z" fill="#62621C"/>
<path d="M182.408 123.327L183.027 124.944L193.824 125.487L194.594 123.555C194.594 123.555 187.888 123.208 182.408 123.327Z" fill="#4E4F16"/>
<path d="M167.867 170.607C167.867 170.607 183.32 175.827 199.499 172.886C200.997 172.615 202.494 172.278 203.992 171.855L200.085 128.905C199.901 126.908 198.338 125.313 196.341 125.107C196.331 125.107 196.32 125.107 196.298 125.107C192.457 124.716 183.917 124.184 176.223 125.422C176.223 125.422 169.234 165.203 167.867 170.596V170.607Z" fill="#7C7C24"/>
<path d="M181.594 128.829C181.594 128.829 180.205 136.11 178.588 140.093C176.982 144.075 174.443 150.586 174.541 153.299C174.628 156.012 173.553 161.893 172.154 164.237C170.743 166.592 170.113 171.28 170.113 171.28L167.867 170.618L175.93 127.06L181.594 128.84V128.829Z" fill="#7C7C24"/>
<path d="M181.476 124.966C182.453 126.333 183.212 132.822 178.785 136.153C173.012 140.505 156.431 148.665 153.425 147.862C150.419 147.07 148.596 140.516 150.864 139.409C153.132 138.302 177.743 119.746 181.465 124.976L181.476 124.966Z" fill="#4E4F16"/>
<path d="M176.669 113.908C176.409 114.245 178.471 114.299 178.471 114.299V110.078L176.669 113.908Z" fill="#F4D8D5"/>
<path d="M191.687 175.639L187.596 176.214L187.975 197.841C187.975 197.841 194.812 207.379 193.672 230.406H190.808C190.808 230.406 191.556 218.296 189.386 207.238C189.071 205.654 186.174 199.74 186.261 199.284C186.348 198.828 184.351 182.638 185.219 177.483C185.523 175.671 184.633 174.076 191.687 175.628V175.639Z" fill="#62621C"/>
<path d="M204.166 183.661L204.98 199.222C204.98 199.222 206.987 216.921 206.77 221.685C206.77 221.685 204.275 201.903 203.428 201.056C202.582 200.221 201.128 199.407 202.31 198.137C203.482 196.868 204.177 183.661 204.177 183.661H204.166Z" fill="#A58A29"/>
<path d="M108.26 181.871H96.7578V184.453H108.26V181.871Z" fill="#4E4F16"/>
<path d="M148.41 181.871H110.289V184.453H148.41V181.871Z" fill="#4E4F16"/>
<path d="M162.378 181.871H150.875V184.453H162.378V181.871Z" fill="#4E4F16"/>
<path d="M175.909 181.871H164.406V184.453H175.909V181.871Z" fill="#4E4F16"/>
<path d="M189.44 181.871H177.938V184.453H189.44V181.871Z" fill="#4E4F16"/>
<path d="M202.971 181.871H191.469V184.453H202.971V181.871Z" fill="#4E4F16"/>
<path d="M108.868 184.465C108.944 188.36 109.161 192.256 109.27 196.162H206.825C210.579 196.162 213.618 193.124 213.618 189.369V184.465H108.857H108.868Z" fill="#645214"/>
<path d="M108.869 184.454C108.902 185.897 108.945 187.329 108.999 188.773H213.586V184.454H108.869Z" fill="#4E4F16"/>
</g>
</svg>
