<svg width="195" height="258" viewBox="0 0 195 258" fill="none" xmlns="http://www.w3.org/2000/svg">
<path d="M143.987 0H48.1323C39.158 0 31.8828 7.27517 31.8828 16.2495V241.611C31.8828 250.586 39.158 257.861 48.1323 257.861H143.987C152.962 257.861 160.237 250.586 160.237 241.611V16.2495C160.237 7.27517 152.962 0 143.987 0Z" fill="white"/>
<path d="M45.1953 11.8101H146.909C150.426 11.8101 153.474 13.9141 154.829 16.9468V16.9478L154.955 17.2319C155.361 18.2233 155.58 19.3201 155.58 20.481V237.552C155.58 244.863 149.672 250.771 142.361 250.771H49.7441C42.4334 250.771 36.5244 244.863 36.5244 237.552V20.481C36.5245 19.3169 36.7444 18.2167 37.1523 17.2231L37.2705 16.9761L37.2764 16.9634C38.6314 13.9147 41.6787 11.8102 45.1953 11.8101Z" stroke="#D6DFFC" stroke-width="1.26071"/>
<path d="M95.6188 7.39042H89.9022C89.3969 7.39042 88.9863 6.97984 88.9863 6.47451C88.9863 5.96917 89.3969 5.55859 89.9022 5.55859H95.6188C96.1241 5.55859 96.5347 5.96917 96.5347 6.47451C96.5347 6.97984 96.1241 7.39042 95.6188 7.39042ZM101.272 6.47451C101.272 5.96917 100.862 5.55859 100.356 5.55859H99.6299C99.1245 5.55859 98.7139 5.96917 98.7139 6.47451C98.7139 6.97984 99.1245 7.39042 99.6299 7.39042H100.356C100.862 7.39042 101.272 6.97984 101.272 6.47451Z" fill="#F7D3F2"/>
<path d="M181.051 73.857H11.0547L36.5739 15.3966L36.7002 15.1281C38.153 11.8593 41.4219 9.60107 45.1961 9.60107H146.91C150.684 9.60107 153.953 11.8593 155.406 15.1123L155.532 15.3966L181.051 73.857Z" fill="#7A7B23"/>
<path d="M113.052 73.794L107.715 9.63281H129.886L147.052 73.794H113.052Z" fill="#FF8C00"/>
<path d="M79.054 73.7939L84.3915 9.60107H62.2201L45.0547 73.7939H79.054Z" fill="#FF8C00"/>
<path d="M11.0547 73.7939C11.0547 83.1899 18.6662 90.8015 28.0464 90.8015C37.4266 90.8015 45.054 83.1899 45.054 73.7939H11.0547Z" fill="#4B4B17"/>
<path d="M45.0547 73.7939C45.0547 83.1899 52.6662 90.8015 62.0622 90.8015C71.4582 90.8015 79.054 83.1899 79.054 73.7939H45.0547Z" fill="#A4600C"/>
<path d="M79.0527 73.7939C79.0527 83.1899 86.6643 90.8015 96.0603 90.8015C105.456 90.8015 113.068 83.1899 113.068 73.7939H79.0685H79.0527Z" fill="#4B4B17"/>
<path d="M113.053 73.7939C113.053 83.1899 120.664 90.8015 130.044 90.8015C139.425 90.8015 147.052 83.1899 147.052 73.7939H113.053Z" fill="#A4600C"/>
<path d="M147.051 73.7939C147.051 83.1899 154.662 90.8015 164.043 90.8015C173.423 90.8015 181.05 83.1899 181.05 73.7939H147.051Z" fill="#4B4B17"/>
<path d="M54.7819 103.214C54.7819 105.014 53.3132 106.483 51.513 106.483C49.7128 106.483 48.2441 105.014 48.2441 103.214C48.2441 101.414 49.7128 99.9451 51.513 99.9451C53.3132 99.9451 54.7819 101.414 54.7819 103.214Z" fill="#FF8C00"/>
<path d="M125.339 103.056C125.339 104.777 123.949 106.167 122.228 106.167C120.507 106.167 119.117 104.777 119.117 103.056C119.117 101.335 120.507 99.9451 122.228 99.9451C123.949 99.9451 125.339 101.335 125.339 103.056Z" fill="white"/>
<path d="M152.911 96.1708C152.911 97.5289 151.821 98.6185 150.463 98.6185C149.105 98.6185 148.016 97.5289 148.016 96.1708C148.016 94.8128 149.105 93.7231 150.463 93.7231C151.821 93.7231 152.911 94.8128 152.911 96.1708Z" fill="#D1D1F4"/>
<path d="M175.286 105.409C175.286 107.177 173.849 108.615 172.081 108.615C170.312 108.615 168.875 107.177 168.875 105.409C168.875 103.64 170.312 102.203 172.081 102.203C173.849 102.203 175.286 103.64 175.286 105.409Z" fill="white"/>
<path d="M24.9033 152.878C24.9033 154.742 23.3873 156.258 21.5239 156.258C19.6605 156.258 18.1445 154.742 18.1445 152.878C18.1445 151.015 19.6605 149.499 21.5239 149.499C23.3873 149.499 24.9033 151.015 24.9033 152.878Z" fill="white"/>
<path d="M61.3037 214.339C61.3037 215.855 60.072 217.071 58.5718 217.071C57.0716 217.071 55.8398 215.84 55.8398 214.339C55.8398 212.839 57.0716 211.607 58.5718 211.607C60.072 211.607 61.3037 212.839 61.3037 214.339Z" fill="white"/>
<path d="M126.696 194.568C127.865 194.568 128.812 193.621 128.812 192.452C128.812 191.284 127.865 190.336 126.696 190.336C125.527 190.336 124.58 191.284 124.58 192.452C124.58 193.621 125.527 194.568 126.696 194.568Z" fill="#FF8C00"/>
<path d="M132.918 173.739C134.636 173.739 136.029 172.347 136.029 170.629C136.029 168.91 134.636 167.518 132.918 167.518C131.199 167.518 129.807 168.91 129.807 170.629C129.807 172.347 131.199 173.739 132.918 173.739Z" fill="#D1D1F4"/>
<path d="M137.403 241.58C137.403 242.812 136.392 243.822 135.16 243.822C133.929 243.822 132.918 242.812 132.918 241.58C132.918 240.348 133.929 239.338 135.16 239.338C136.392 239.338 137.403 240.348 137.403 241.58Z" fill="#D1D1F4"/>
<path d="M18.8859 247.738C19.9674 247.738 20.844 246.862 20.844 245.78C20.844 244.699 19.9674 243.822 18.8859 243.822C17.8044 243.822 16.9277 244.699 16.9277 245.78C16.9277 246.862 17.8044 247.738 18.8859 247.738Z" fill="#D1D1F4"/>
<path d="M33.0048 213.013C46.1393 213.013 56.7869 202.365 56.7869 189.231C56.7869 176.096 46.1393 165.449 33.0048 165.449C19.8703 165.449 9.22266 176.096 9.22266 189.231C9.22266 202.365 19.8703 213.013 33.0048 213.013Z" fill="white"/>
<path d="M20.6722 191.449L42.1367 181.581L40.3293 177.649L18.8648 187.517L20.6722 191.449Z" fill="#FE8C00"/>
<path d="M40.7749 182.216L22.0078 190.844L27.7532 203.341L46.5203 194.713L40.7749 182.216Z" fill="#FE8C00"/>
<path d="M40.773 182.219L22.0059 190.847L22.4082 191.722L41.1753 183.094L40.773 182.219Z" fill="#DEC985"/>
<path d="M33.4481 177.229C33.0217 175.855 32.4216 174.371 31.6794 173.645C30.4793 172.444 29.4528 178.414 29.0107 181.382C26.484 179.787 21.2728 176.677 21.4149 178.366C21.4939 179.408 22.2361 180.814 22.9941 182.046C21.7307 182.046 20.5148 182.172 20.6885 182.567C21.0359 183.341 28.0316 183.325 28.0316 183.325L31.1425 181.904C31.1425 181.904 35.6905 176.613 35.3431 175.84C35.1694 175.445 34.2851 176.313 33.4481 177.261V177.229Z" fill="#47472D"/>
<path d="M31.1304 181.903L28.0312 183.327L35.584 199.756L38.6831 198.331L31.1304 181.903Z" fill="#47472D"/>
<path d="M160.128 179.566C167.419 179.566 173.329 173.656 173.329 166.365C173.329 159.073 167.419 153.163 160.128 153.163C152.836 153.163 146.926 159.073 146.926 166.365C146.926 173.656 152.836 179.566 160.128 179.566Z" fill="white"/>
<path d="M157.411 172.571C154.521 171.308 153.195 167.912 154.474 165.023C155.737 162.133 159.132 160.806 162.022 162.085C164.912 163.349 166.239 166.744 164.96 169.634C163.68 172.524 160.301 173.85 157.411 172.571ZM161.564 163.096C159.227 162.069 156.495 163.143 155.469 165.465C154.442 167.802 155.516 170.534 157.838 171.56C160.175 172.587 162.907 171.513 163.933 169.191C164.96 166.854 163.886 164.122 161.564 163.096Z" fill="#767723"/>
<path d="M163.175 159.464L160.996 159.558L161.012 161.517L162.023 162.085L163.128 162.432L164.581 161.138L163.175 159.464Z" fill="#767723"/>
<path d="M162.906 162.259C162.337 162.038 162.7 161.138 162.479 161.043C162.258 160.948 161.832 161.832 161.295 161.564C160.758 161.296 160.632 159.922 160.537 160.711C160.442 161.501 160.505 161.769 161.895 162.369C163.269 162.969 163.521 162.843 164.043 162.243C164.564 161.643 163.458 162.496 162.906 162.275V162.259Z" fill="#4BFF63"/>
<path d="M146.277 118.469C146.277 123.364 142.313 127.343 137.402 127.343C132.491 127.343 128.527 123.38 128.527 118.469C128.527 113.557 132.491 109.594 137.402 109.594C142.313 109.594 146.277 113.573 146.277 118.469Z" fill="white"/>
<path d="M137.354 122.401L136.106 121.58C136.106 121.58 135.475 121.169 134.89 120.68C134.038 119.969 133.074 118.974 133.074 117.632C133.074 116.368 134.101 115.326 135.38 115.326C136.248 115.326 137.022 115.816 137.401 116.542C137.796 115.847 138.538 115.374 139.407 115.374C140.67 115.374 141.712 116.4 141.712 117.679C141.712 119.053 140.717 120.032 139.849 120.727C139.249 121.201 138.68 121.58 138.617 121.611L137.354 122.401Z" fill="#FF8C00"/>
<path d="M59.3917 123.159C59.3917 127.375 55.9649 130.802 51.7486 130.802C47.5322 130.802 44.1055 127.375 44.1055 123.159C44.1055 118.943 47.5322 115.516 51.7486 115.516C55.9649 115.516 59.3917 118.943 59.3917 123.159Z" fill="#7A7B23"/>
<path d="M52.4751 126.223V127.565H51.3065V126.207C50.4854 126.096 49.68 125.749 49.0957 125.275L49.7116 124.028C50.3432 124.565 51.3065 124.959 51.9382 124.959C52.4119 124.959 52.712 124.786 52.712 124.454C52.712 123.412 49.4747 124.044 49.4747 121.864C49.4747 120.885 50.1695 120.222 51.3065 120.032V118.738H52.4751V120.017C53.2015 120.096 53.8806 120.348 54.4017 120.68L53.8016 121.959C53.1541 121.596 52.333 121.296 51.8119 121.296C51.4329 121.296 51.1644 121.438 51.1644 121.722C51.1644 122.733 54.4017 122.164 54.4017 124.375C54.4017 125.449 53.5805 126.081 52.4751 126.239V126.223Z" fill="white"/>
<path d="M176.401 234.25C186.225 224.426 186.225 208.498 176.401 198.674C166.577 188.85 150.649 188.85 140.825 198.674C131.001 208.498 131.001 224.426 140.825 234.25C150.649 244.074 166.577 244.074 176.401 234.25Z" fill="white"/>
<path d="M168.858 213.834L163.457 205.101L163.757 204.328C163.947 203.838 163.805 203.285 163.379 202.922C163.078 202.669 162.984 202.275 163.126 201.911C163.221 201.69 163.379 201.517 163.6 201.422C163.821 201.327 164.058 201.327 164.279 201.422C164.5 201.517 164.673 201.675 164.768 201.896C164.863 202.117 164.863 202.354 164.768 202.575C164.642 202.875 164.8 203.222 165.1 203.349C165.4 203.459 165.747 203.317 165.874 203.017C166.3 201.959 165.779 200.743 164.721 200.332C164.215 200.127 163.647 200.143 163.142 200.348C162.636 200.569 162.242 200.964 162.036 201.485C161.705 202.322 161.941 203.27 162.668 203.901L162.336 204.722L152.498 207.328C151.866 207.502 151.424 208.039 151.377 208.686C151.345 209.349 151.709 209.934 152.324 210.17L159.715 213.124L167.026 216.045C167.216 216.124 167.405 216.156 167.595 216.156C168.021 216.156 168.448 215.966 168.732 215.619C169.158 215.113 169.206 214.418 168.858 213.866V213.834ZM167.832 214.829C167.832 214.829 167.658 215.003 167.469 214.924L160.157 212.002L152.767 209.049C152.577 208.97 152.561 208.797 152.561 208.733C152.561 208.67 152.593 208.497 152.798 208.449L162.557 205.875L167.863 214.45C167.974 214.624 167.879 214.766 167.832 214.829Z" fill="#5F055A"/>
<path d="M167.043 208.67C165.7 209.144 163.316 209.839 161.279 209.049C159.273 208.228 158.01 206.08 157.362 204.817L146.608 207.312L147.777 213.629L151.062 212.839L145.598 226.546L160.615 232.531L166.079 218.824L167.911 221.651L173.107 217.861L167.027 208.655L167.043 208.67Z" fill="#7A7B23"/>
<path d="M44.107 228.931C44.107 234.805 39.3538 239.559 33.4793 239.559C27.6048 239.559 22.8516 234.805 22.8516 228.931C22.8516 223.056 27.6048 218.303 33.4793 218.303C39.3538 218.303 44.107 223.056 44.107 228.931Z" fill="white"/>
<path d="M33.4783 222.772L35.3101 226.483L39.4002 227.068L36.4313 229.957L37.142 234.016L33.4783 232.105L29.8305 234.016L30.5253 229.957L27.5723 227.068L31.6465 226.483L33.4783 222.772Z" fill="#D1D1F4"/>
<path d="M122.732 251.402H69.625C69.6566 243.885 70.1619 231.852 72.4991 218.572C72.4991 218.572 115.421 222.14 115.421 221.651C115.484 221.651 119.826 239.416 122.732 251.402Z" fill="#D1D1F4"/>
<path d="M70.3823 217.845L69.6559 222.756C69.4506 224.13 70.2875 225.441 71.6298 225.836C78.2623 227.809 98.0175 232.579 115.815 225.725C117.11 225.22 117.883 223.877 117.583 222.519L116.746 218.571L70.3823 217.845Z" fill="#DEC985"/>
<path d="M85.9375 153.936C85.9375 153.936 59.7392 144.651 54.986 143.34C51.2118 142.314 36.873 131.26 31.1091 126.727C29.83 125.717 27.9508 126.08 27.1296 127.501L22.6764 135.16C21.9816 136.344 22.2974 137.86 23.4028 138.682C29.1509 142.898 45.89 155.105 49.68 157.252C54.2753 159.858 73.6832 171.117 73.6832 171.117L69.0089 217.276C68.8984 218.445 69.53 219.534 70.6038 220.008C73.7464 221.366 81.2158 223.798 94.1017 223.609C106.83 223.419 114.678 221.493 118.105 220.403C119.305 220.024 120.063 218.855 119.953 217.608L117.031 185.772C117.031 185.772 117.189 181.714 116.305 177.15C115.436 172.586 116.194 166.459 116.194 166.459C116.194 166.459 140.434 153.21 144.635 151.267C148.125 149.641 162.495 140.687 168.764 136.597C169.933 135.839 170.312 134.323 169.664 133.091L165.511 125.259C164.801 123.901 163.095 123.427 161.784 124.201L136.786 138.334L99.8972 154.126L85.9217 153.905L85.9375 153.936Z" fill="#FF8C00"/>
<path d="M98.9025 147.809C101.003 151.347 108.125 152.168 111.536 150.447C110.904 150.51 110.225 149.957 109.862 149.436C109.499 148.915 109.357 148.267 109.246 147.636C108.693 144.446 109.009 141.129 110.146 138.098C110.004 139.692 109.862 141.319 110.178 142.898C110.494 144.477 111.315 146.025 112.704 146.83C114.094 147.636 116.068 147.509 117.094 146.262C116.431 146.514 115.531 146.151 115.057 145.614C114.584 145.077 114.362 144.383 114.189 143.688C112.704 137.813 113.936 131.655 114.82 125.654C115.705 119.669 116.147 113.21 113.289 107.872C112.215 105.867 110.651 104.035 108.599 103.056C106.546 102.061 103.972 102.014 102.061 103.261C97.7023 100.308 92.27 98.0659 86.9167 98.7291C81.9265 99.345 77.4101 102.014 74.2992 105.946C70.8724 110.273 69.5143 115.784 68.8985 121.185C68.4879 124.833 68.4247 128.496 68.33 132.16C68.2352 136.266 68.3774 140.766 70.3987 144.462C72.1831 147.715 77.2522 150.525 80.8843 149.815C79.0367 148.488 78.0734 146.12 78.1997 143.861C78.3892 146.325 80.3158 148.552 82.7319 149.057C81.9423 147.604 81.8949 145.677 82.5424 144.161C82.5424 145.788 83.3636 147.383 84.6901 148.33C86.0166 149.278 87.801 149.531 89.3328 148.994C88.8275 148.646 88.2905 148.267 88.0379 147.715C87.7694 147.162 87.9115 146.372 88.4642 146.12C89.0327 145.851 89.6644 146.262 90.2013 146.593C92.6332 148.094 96.1547 148.694 98.8867 147.825L98.9025 147.809Z" fill="#2C1D2B"/>
<path d="M87.7531 154.031L83.4104 134.639C83.4104 134.639 75.8621 137.608 74.9935 131.371C74.2197 125.812 80.2679 125.133 83.2999 127.628C83.2999 127.628 77.2201 108.378 94.0066 106.104C110.793 103.83 111.946 126.917 112.262 132.492C112.799 142.33 105.945 147.352 100.86 148.062L101.508 154.079C101.508 154.079 102.139 159.337 97.1807 159.748C90.5798 160.301 87.7689 154.031 87.7689 154.031H87.7531Z" fill="#EFBEB6"/>
<path d="M105.33 109.799C103.83 116.147 89.5383 130.802 89.5383 130.802C89.5383 130.802 86.001 140.324 88.4803 145.425C88.4803 145.425 83.9797 136.203 85.9221 127.849C87.8644 119.495 105.314 109.815 105.314 109.815L105.33 109.799Z" fill="#EFBEB6"/>
<path d="M82.0051 132.128C81.784 132.113 81.5945 131.939 81.563 131.702C81.4524 130.881 80.9313 130.123 80.2049 129.744C79.4785 129.349 78.5626 129.349 77.8204 129.712C77.5835 129.839 77.2834 129.744 77.1729 129.491C77.0466 129.254 77.1413 128.954 77.394 128.844C78.4046 128.323 79.668 128.338 80.6786 128.875C81.6893 129.412 82.3999 130.439 82.542 131.576C82.5736 131.844 82.3841 132.081 82.1157 132.128C82.0841 132.128 82.0525 132.128 82.0051 132.128Z" fill="#5F055A"/>
<path d="M79.6999 131.639C79.6209 131.639 79.5419 131.607 79.463 131.56C79.2419 131.402 79.1945 131.102 79.3367 130.881L80.3631 129.412C80.521 129.191 80.8211 129.144 81.0422 129.286C81.2632 129.444 81.3106 129.744 81.1685 129.965L80.142 131.434C80.0315 131.576 79.8736 131.655 79.6999 131.639Z" fill="#5F055A"/>
<path d="M100.83 148.062C97.4979 148.757 90.8496 145.962 90.8496 145.962C90.8496 145.962 95.066 150.51 101.146 151.047L100.83 148.062Z" fill="#EFBEB6"/>
<path d="M86.8854 157.474C86.8854 157.474 82.1321 147.888 86.3169 147.588L86.7591 149.42C86.7591 149.42 96.6604 152.468 101.177 151.031L100.924 148.741C100.924 148.741 102.961 148.378 103.324 150.399C103.688 152.42 104.461 158.642 103.356 160.521C102.251 162.401 89.6805 163.38 86.8854 157.458V157.474Z" fill="#FF8C00"/>
<path d="M95.5712 158.848C92.1602 158.848 88.765 157.837 85.9383 155.863C85.733 155.721 85.6857 155.452 85.8278 155.247C85.9699 155.042 86.2384 154.995 86.4437 155.137C90.9916 158.327 97.4188 158.832 102.425 156.416C102.646 156.305 102.914 156.416 103.009 156.621C103.12 156.842 103.009 157.111 102.804 157.205C100.546 158.295 98.0505 158.832 95.5712 158.832V158.848Z" fill="#DEC985"/>
<path d="M88.4964 154.315C88.2911 154.315 88.1016 154.173 88.07 153.952L87.5963 151.362C87.5489 151.125 87.7068 150.889 87.9595 150.841C88.1963 150.794 88.4332 150.952 88.4806 151.204L88.9543 153.794C89.0017 154.031 88.8438 154.268 88.5911 154.315C88.5596 154.315 88.5438 154.315 88.5122 154.315H88.4964Z" fill="#DEC985"/>
<path d="M90.9119 154.584C90.7066 154.584 90.5171 154.442 90.4855 154.237L90.1223 152.563C90.075 152.326 90.2171 152.089 90.4697 152.042C90.7066 151.995 90.9435 152.137 90.9909 152.389L91.3541 154.063C91.4014 154.3 91.2593 154.537 91.0066 154.584C90.9751 154.584 90.9435 154.584 90.9119 154.584Z" fill="#DEC985"/>
<path d="M105.329 109.799L102.455 105.678C97.1015 102.898 90.0743 103.767 85.5579 107.762C81.0415 111.757 79.3044 118.611 81.4047 124.28C82.0048 125.907 82.8733 127.407 83.4576 129.033C85.4 134.434 84.0577 140.798 86.9318 145.757C87.3739 146.53 87.9424 147.273 88.7162 147.731C89.49 148.189 90.6586 148.125 91.4481 147.731C90.6744 147.778 89.9164 147.32 89.4426 146.704C88.9689 146.088 88.7004 145.33 88.4951 144.572C87.0423 139.503 86.837 134.023 88.1161 128.907C94.5433 125.149 102.392 116.653 105.329 109.815V109.799Z" fill="#2C1D2B"/>
<path d="M27.1305 127.501L23.5931 125.133L19.3926 132.476L22.6772 135.16L27.1305 127.501Z" fill="#DEC985"/>
<path d="M165.543 125.275L168.37 123.68L172.554 131.023L169.68 133.108L165.543 125.275Z" fill="#DEC985"/>
<path d="M23.5926 125.133C23.5926 125.133 20.3869 121.453 19.092 119.716C17.7971 117.979 17.0865 113.621 16.3601 113.558C15.2547 113.479 15.3494 116.653 15.7758 119.179C15.7758 119.179 7.56417 110.478 6.44297 111.078C5.32176 111.678 11.97 118.769 11.97 118.769C11.97 118.769 2.28978 114.71 1.86341 115.405C1.43703 116.1 10.5962 121.374 10.5962 121.374C10.5962 121.374 0 119.953 0 120.853C0 121.753 10.2487 125.243 10.2487 125.243C10.2487 125.243 0.568497 124.927 0.39479 125.528C0.221082 126.128 11.7174 129.017 13.9598 129.412L19.4079 132.492L23.5926 125.149V125.133Z" fill="#EFBEB6"/>
<path d="M168.369 123.68C168.369 123.68 171.575 120 172.87 118.263C174.165 116.542 174.875 112.168 175.602 112.105C176.707 112.026 176.612 115.2 176.186 117.726C176.186 117.726 184.398 109.025 185.519 109.625C186.64 110.225 179.992 117.316 179.992 117.316C179.992 117.316 189.672 113.257 190.098 113.952C190.525 114.647 181.366 119.921 181.366 119.921C181.366 119.921 191.962 118.5 191.962 119.4C191.962 120.3 181.713 123.79 181.713 123.79C181.713 123.79 191.393 123.475 191.567 124.075C191.741 124.675 180.244 127.565 178.002 127.959L172.554 131.039L168.369 123.696V123.68Z" fill="#EFBEB6"/>
</svg>
